# xmcd
#
# Track frame offsets: 
#        150
#        14042
#        26974
#        41503
#        62407
#        74791
#        87363
#        98367
#        110294
#        132248
#        147445
#        165177
#
# Disc length: 2419 seconds
#
# Revision: 0
# Processed by: cddbd v1.5.2PL0 Copyright (c) Steve Scherf et al.
# Submitted via: ExactAudioCopy v1.3
#
DISCID=a009710c
DTITLE=Iron Horse - New Tracks
DYEAR=2005
DGENRE=Bluegrass
TTITLE0=You've Waited Too Long
TTITLE1=Holdin' The Wind
TTITLE2=Shine Jerusalem
TTITLE3=Old Elijah
TTITLE4=If Your Ever In Oklahoma
TTITLE5=Land Where No Cabins Fall
TTITLE6=Girl Walking In My Dreams
TTITLE7=New Tracks
TTITLE8=Gonna Ride Those Trains
TTITLE9=Dancin' With The Angels
TTITLE10=Face Of Christ
TTITLE11=Travelin' Kind
EXTD=
EXTT0=
EXTT1=
EXTT2=
EXTT3=
EXTT4=
EXTT5=
EXTT6=
EXTT7=
EXTT8=
EXTT9=
EXTT10=
EXTT11=
PLAYORDER=
